<svg
  xmlns="http://www.w3.org/2000/svg"
  width="64"
  height="64"
  viewBox="0 0 64 64"
  fill="none"
>
  <defs>
    <linearGradient id="bg" x1="8" y1="6" x2="58" y2="60" gradientUnits="userSpaceOnUse">
      <stop stop-color="#111126" />
      <stop offset="1" stop-color="#07070f" />
    </linearGradient>
    <linearGradient id="accent" x1="18" y1="16" x2="47" y2="48" gradientUnits="userSpaceOnUse">
      <stop stop-color="#6366f1" />
      <stop offset="1" stop-color="#8b5cf6" />
    </linearGradient>
    <linearGradient id="glow" x1="22" y1="20" x2="42" y2="42" gradientUnits="userSpaceOnUse">
      <stop stop-color="#dfe8ff" />
      <stop offset="1" stop-color="#8cb7ff" />
    </linearGradient>
  </defs>

  <rect x="3" y="3" width="58" height="58" rx="18" fill="url(#bg)" />
  <rect
    x="3.75"
    y="3.75"
    width="56.5"
    height="56.5"
    rx="17.25"
    stroke="#23233a"
    stroke-width="1.5"
  />

  <path
    d="M32 14.5 46 22.5v19L32 49.5l-14-8v-19l14-8Z"
    fill="#0f1120"
    stroke="url(#accent)"
    stroke-width="2.2"
    stroke-linejoin="round"
  />
  <path
    d="M32 20.5 40.5 25.5v13L32 43.5l-8.5-5v-13l8.5-5Z"
    fill="url(#accent)"
    fill-opacity=".12"
    stroke="url(#accent)"
    stroke-width="1.8"
    stroke-linejoin="round"
  />

  <path
    d="m28.25 28.25-4 4 4 4"
    stroke="url(#glow)"
    stroke-width="2.6"
    stroke-linecap="round"
    stroke-linejoin="round"
  />
  <path
    d="M35.25 36.25h4.5"
    stroke="#35d0ff"
    stroke-width="2.6"
    stroke-linecap="round"
  />
  <circle cx="43.5" cy="20.5" r="2.25" fill="#35d0ff" />
</svg>
