<svg width="1600" height="960" viewBox="0 0 1600 960" fill="none" xmlns="http://www.w3.org/2000/svg">
  <defs>
    <linearGradient id="bg" x1="180" y1="40" x2="1410" y2="900" gradientUnits="userSpaceOnUse">
      <stop stop-color="#111126"/>
      <stop offset="1" stop-color="#060610"/>
    </linearGradient>
    <linearGradient id="accent" x1="0" y1="0" x2="1" y2="1">
      <stop stop-color="#7C83FF"/>
      <stop offset="1" stop-color="#A855F7"/>
    </linearGradient>
    <linearGradient id="panel" x1="0" y1="0" x2="0" y2="1">
      <stop stop-color="#141428"/>
      <stop offset="1" stop-color="#0C0C19"/>
    </linearGradient>
    <filter id="shadow" x="-20%" y="-20%" width="140%" height="140%">
      <feDropShadow dx="0" dy="20" stdDeviation="24" flood-color="#000000" flood-opacity="0.35"/>
    </filter>
  </defs>

  <rect width="1600" height="960" rx="32" fill="url(#bg)"/>
  <circle cx="1380" cy="120" r="220" fill="#6D28D9" opacity="0.08"/>
  <circle cx="190" cy="840" r="240" fill="#06B6D4" opacity="0.06"/>

  <g filter="url(#shadow)">
    <rect x="48" y="42" width="1504" height="876" rx="28" fill="#090913" stroke="#21213A"/>
  </g>

  <rect x="48" y="42" width="1504" height="64" rx="28" fill="#0D0D1B"/>
  <rect x="74" y="60" width="34" height="34" rx="10" fill="url(#accent)"/>
  <text x="126" y="83" fill="#F3F4FF" font-family="JetBrains Mono, monospace" font-size="22" font-weight="700">Nomadex</text>
  <rect x="352" y="60" width="160" height="34" rx="17" fill="#0B291F" stroke="#0F5E46"/>
  <text x="384" y="82" fill="#34D399" font-family="JetBrains Mono, monospace" font-size="18">Full Access</text>
  <rect x="1326" y="58" width="182" height="38" rx="12" fill="#121224" stroke="#2A2A43"/>
  <circle cx="1354" cy="77" r="6" fill="#10B981"/>
  <text x="1372" y="84" fill="#B6B7D8" font-family="JetBrains Mono, monospace" font-size="18">gpt-5.4</text>

  <rect x="48" y="106" width="296" height="812" fill="#0B0B16"/>
  <text x="82" y="154" fill="#6366F1" font-family="JetBrains Mono, monospace" font-size="14">TODAY</text>

  <rect x="72" y="176" width="248" height="66" rx="16" fill="#181832" stroke="#3B3B67"/>
  <text x="94" y="206" fill="#F5F5FF" font-family="JetBrains Mono, monospace" font-size="18">💬 Refactor auth flow</text>
  <text x="94" y="228" fill="#7E81B2" font-family="JetBrains Mono, monospace" font-size="14">latest streamed thread</text>

  <rect x="72" y="252" width="248" height="60" rx="14" fill="#101022"/>
  <text x="94" y="286" fill="#A4A6C8" font-family="JetBrains Mono, monospace" font-size="17">💬 Review suppliers portal</text>

  <rect x="72" y="322" width="248" height="60" rx="14" fill="#101022"/>
  <text x="94" y="356" fill="#A4A6C8" font-family="JetBrains Mono, monospace" font-size="17">⑂ Worker thread: mobile polish</text>

  <rect x="72" y="756" width="248" height="126" rx="18" fill="#121224" stroke="#23233C"/>
  <text x="92" y="792" fill="#F5F5FF" font-family="JetBrains Mono, monospace" font-size="16">Use cases</text>
  <text x="92" y="822" fill="#9DA0C8" font-family="JetBrains Mono, monospace" font-size="13">• mobile companion</text>
  <text x="92" y="846" fill="#9DA0C8" font-family="JetBrains Mono, monospace" font-size="13">• diff supervision</text>
  <text x="92" y="870" fill="#9DA0C8" font-family="JetBrains Mono, monospace" font-size="13">• LAN-access Codex shell</text>

  <rect x="344" y="106" width="920" height="812" fill="#080811"/>
  <rect x="372" y="128" width="864" height="46" rx="16" fill="#0F1020" stroke="#22243B"/>
  <text x="398" y="157" fill="#F4F4FF" font-family="JetBrains Mono, monospace" font-size="18">💬 Refactor auth flow</text>
  <text x="1114" y="157" fill="#71749D" font-family="JetBrains Mono, monospace" font-size="14">thread / chat</text>

  <rect x="400" y="220" width="770" height="130" rx="24" fill="url(#panel)" stroke="#1F2136"/>
  <circle cx="434" cy="254" r="18" fill="url(#accent)"/>
  <text x="466" y="258" fill="#C8CAEA" font-family="JetBrains Mono, monospace" font-size="18">Codex</text>
  <text x="466" y="296" fill="#F8F8FF" font-family="JetBrains Mono, monospace" font-size="22">I’m streaming the current turn, keeping approvals and diff review</text>
  <text x="466" y="328" fill="#F8F8FF" font-family="JetBrains Mono, monospace" font-size="22">visible, and holding the active thread context across reloads.</text>

  <rect x="602" y="382" width="568" height="90" rx="24" fill="url(#accent)"/>
  <text x="638" y="437" fill="#FCFCFF" font-family="JetBrains Mono, monospace" font-size="24">Can you review the last diff and tighten mobile spacing?</text>

  <rect x="400" y="510" width="770" height="172" rx="24" fill="#111224" stroke="#1E2035"/>
  <rect x="430" y="542" width="710" height="44" rx="14" fill="#171931" stroke="#2B2E49"/>
  <text x="458" y="570" fill="#EDEEFF" font-family="JetBrains Mono, monospace" font-size="18">▶ /bin/bash -lc "npm run build"</text>
  <text x="1032" y="570" fill="#34D399" font-family="JetBrains Mono, monospace" font-size="18">✓ Completed</text>
  <rect x="430" y="598" width="710" height="56" rx="14" fill="#171931" stroke="#2B2E49"/>
  <text x="458" y="632" fill="#AEB2D8" font-family="JetBrains Mono, monospace" font-size="18">📄 src/app/CodexWorkspace.tsx   +142 / -37</text>

  <rect x="372" y="734" width="864" height="152" rx="22" fill="#0E0F1D" stroke="#282B43"/>
  <rect x="398" y="764" width="674" height="54" rx="18" fill="#14162A" stroke="#313452"/>
  <text x="426" y="797" fill="#A2A6CC" font-family="JetBrains Mono, monospace" font-size="20">Ask Codex…  @ mention  ·  / command  ·  $ skills</text>
  <rect x="1092" y="762" width="116" height="58" rx="18" fill="url(#accent)"/>
  <text x="1136" y="798" fill="#FCFCFF" font-family="JetBrains Mono, monospace" font-size="26">↑</text>
  <text x="398" y="854" fill="#6D7095" font-family="JetBrains Mono, monospace" font-size="15">auto (default)   ·   gpt-5.4   ·   live transport connected</text>

  <rect x="1264" y="106" width="288" height="812" fill="#0A0A14"/>
  <text x="1294" y="154" fill="#F5F5FF" font-family="JetBrains Mono, monospace" font-size="18">Panels</text>
  <rect x="1290" y="178" width="236" height="112" rx="18" fill="#111224" stroke="#252741"/>
  <text x="1312" y="210" fill="#9BA0C7" font-family="JetBrains Mono, monospace" font-size="15">Diff Review</text>
  <text x="1312" y="242" fill="#F4F4FF" font-family="JetBrains Mono, monospace" font-size="17">3 changed files</text>
  <text x="1312" y="266" fill="#34D399" font-family="JetBrains Mono, monospace" font-size="15">+182 / -61</text>

  <rect x="1290" y="306" width="236" height="112" rx="18" fill="#111224" stroke="#252741"/>
  <text x="1312" y="338" fill="#9BA0C7" font-family="JetBrains Mono, monospace" font-size="15">Background terminals</text>
  <text x="1312" y="370" fill="#F4F4FF" font-family="JetBrains Mono, monospace" font-size="17">2 running</text>
  <text x="1312" y="394" fill="#8B5CF6" font-family="JetBrains Mono, monospace" font-size="15">watching live logs</text>

  <rect x="1290" y="434" width="236" height="112" rx="18" fill="#111224" stroke="#252741"/>
  <text x="1312" y="466" fill="#9BA0C7" font-family="JetBrains Mono, monospace" font-size="15">Skills &amp; MCP</text>
  <text x="1312" y="498" fill="#F4F4FF" font-family="JetBrains Mono, monospace" font-size="17">7 skills · 3 servers</text>
  <text x="1312" y="522" fill="#06B6D4" font-family="JetBrains Mono, monospace" font-size="15">connected over LAN</text>
 </svg>
