<svg width="430" height="932" viewBox="0 0 430 932" fill="none" xmlns="http://www.w3.org/2000/svg">
  <defs>
    <linearGradient id="mbg" x1="40" y1="20" x2="380" y2="920" gradientUnits="userSpaceOnUse">
      <stop stop-color="#111126"/>
      <stop offset="1" stop-color="#060610"/>
    </linearGradient>
    <linearGradient id="macc" x1="0" y1="0" x2="1" y2="1">
      <stop stop-color="#7C83FF"/>
      <stop offset="1" stop-color="#A855F7"/>
    </linearGradient>
  </defs>

  <rect width="430" height="932" rx="34" fill="url(#mbg)"/>
  <rect x="18" y="18" width="394" height="896" rx="30" fill="#090913" stroke="#1F2136"/>

  <rect x="18" y="18" width="394" height="68" rx="30" fill="#0D0D1B"/>
  <rect x="36" y="36" width="34" height="34" rx="11" fill="url(#macc)"/>
  <text x="84" y="58" fill="#F4F4FF" font-family="JetBrains Mono, monospace" font-size="16" font-weight="700">Codex CLI</text>
  <rect x="184" y="34" width="118" height="36" rx="18" fill="#0B291F" stroke="#0F5E46"/>
  <text x="209" y="58" fill="#34D399" font-family="JetBrains Mono, monospace" font-size="14">Full Access</text>

  <rect x="32" y="104" width="366" height="42" rx="14" fill="#0F1020" stroke="#22243B"/>
  <text x="50" y="130" fill="#EDEEFF" font-family="JetBrains Mono, monospace" font-size="14">💬 Mobile Codex session</text>

  <rect x="32" y="170" width="300" height="116" rx="22" fill="#111224" stroke="#1F2136"/>
  <circle cx="60" cy="198" r="14" fill="url(#macc)"/>
  <text x="82" y="203" fill="#C8CAEA" font-family="JetBrains Mono, monospace" font-size="14">Codex</text>
  <text x="50" y="234" fill="#F7F7FF" font-family="JetBrains Mono, monospace" font-size="16">Live response stream, approvals,</text>
  <text x="50" y="258" fill="#F7F7FF" font-family="JetBrains Mono, monospace" font-size="16">file mentions, and diff review</text>

  <rect x="98" y="310" width="300" height="84" rx="22" fill="url(#macc)"/>
  <text x="122" y="360" fill="#FCFCFF" font-family="JetBrains Mono, monospace" font-size="18">Please review the last patch</text>

  <rect x="32" y="422" width="366" height="166" rx="22" fill="#111224" stroke="#1F2136"/>
  <rect x="50" y="446" width="330" height="40" rx="12" fill="#171931" stroke="#2B2E49"/>
  <text x="70" y="471" fill="#EDEEFF" font-family="JetBrains Mono, monospace" font-size="14">▶ npm run build</text>
  <text x="268" y="471" fill="#34D399" font-family="JetBrains Mono, monospace" font-size="14">✓ Completed</text>
  <rect x="50" y="500" width="330" height="58" rx="12" fill="#171931" stroke="#2B2E49"/>
  <text x="70" y="535" fill="#AEB2D8" font-family="JetBrains Mono, monospace" font-size="14">📄 CodexWorkspace.tsx  +142 / -37</text>

  <rect x="32" y="646" width="366" height="222" rx="24" fill="#0E0F1D" stroke="#282B43"/>
  <rect x="52" y="668" width="326" height="48" rx="16" fill="#14162A" stroke="#313452"/>
  <text x="72" y="698" fill="#A2A6CC" font-family="JetBrains Mono, monospace" font-size="15">@ mention  ·  / command  ·  $ skills</text>
  <rect x="52" y="734" width="236" height="92" rx="18" fill="#14162A" stroke="#313452"/>
  <text x="72" y="785" fill="#9BA0C7" font-family="JetBrains Mono, monospace" font-size="16">Ask Codex…</text>
  <rect x="308" y="748" width="70" height="70" rx="22" fill="url(#macc)"/>
  <text x="334" y="790" fill="#FCFCFF" font-family="JetBrains Mono, monospace" font-size="26">↑</text>
  <text x="54" y="850" fill="#6D7095" font-family="JetBrains Mono, monospace" font-size="12">gpt-5.4  ·  LAN live session  ·  mobile-first</text>
</svg>
